<?xml version="1.0" standalone="no"?>
<!DOCTYPE svg PUBLIC "-//W3C//DTD SVG 20010904//EN"
 "http://www.w3.org/TR/2001/REC-SVG-20010904/DTD/svg10.dtd">
<svg version="1.0" xmlns="http://www.w3.org/2000/svg"
 width="788.000000pt" height="788.000000pt" viewBox="0 0 788.000000 788.000000"
 preserveAspectRatio="xMidYMid meet">
<metadata>
Created by potrace 1.11, written by Peter Selinger 2001-2013
</metadata>
<g transform="translate(0.000000,788.000000) scale(0.100000,-0.100000)"
fill="#000000" stroke="none">
<path d="M5046 7193 c17 -69 139 -325 172 -359 11 -11 23 -36 27 -55 20 -88
116 -308 168 -383 11 -15 35 -35 53 -42 19 -8 34 -19 34 -24 0 -6 36 -87 80
-181 79 -170 79 -170 64 -203 -15 -31 -15 -37 6 -97 32 -90 143 -320 167 -345
12 -11 24 -36 28 -55 20 -88 116 -308 168 -383 11 -15 35 -35 53 -42 19 -8 34
-19 34 -24 0 -6 36 -87 80 -181 77 -165 79 -171 65 -199 -31 -59 -15 -122 77
-320 47 -100 86 -155 117 -165 12 -3 25 -25 35 -56 24 -73 71 -143 129 -194
l52 -45 -130 -2 c-72 -1 -146 -3 -165 -4 -43 -3 -91 -4 -127 -4 -128 2 -1201
-11 -1247 -15 -33 -2 -77 0 -100 5 -22 5 -44 6 -49 3 -4 -3 -31 -6 -58 -8 -45
-2 -50 0 -46 16 4 13 0 19 -11 19 -15 0 -15 2 -2 10 13 8 12 10 -3 10 -10 0
-15 4 -12 10 3 6 1 10 -4 10 -6 0 -11 8 -11 18 0 25 -19 42 -47 42 -13 0 -22
3 -22 8 4 21 -2 34 -14 29 -8 -3 -14 1 -14 9 0 7 3 11 6 10 3 -2 6 7 6 20 0
13 -4 24 -9 24 -5 0 -6 3 -3 7 8 8 -39 33 -63 33 -10 0 -21 -6 -23 -12 -3 -8
-6 -6 -6 4 -1 10 -7 16 -13 14 -7 -1 -10 -1 -5 1 14 9 7 25 -9 19 -8 -3 -12
-2 -9 4 3 6 1 10 -5 10 -6 0 -9 4 -6 9 10 15 -5 41 -23 41 -14 0 -14 2 -1 10
13 8 13 10 -1 10 -9 0 -16 7 -16 15 0 8 4 12 9 9 4 -3 8 4 8 16 0 13 -4 19
-11 14 -8 -4 -9 0 -4 15 4 14 2 23 -9 27 -8 3 -18 20 -21 37 -4 18 -17 43 -29
57 l-21 25 23 -19 c19 -17 22 -17 22 -3 0 10 -5 17 -11 17 -8 0 -7 6 2 17 10
12 11 17 2 20 -7 2 -9 11 -7 18 4 10 0 13 -14 10 -19 -3 -19 -2 -7 23 8 14 12
29 9 34 -3 4 -1 8 4 8 5 0 12 11 14 25 3 14 1 25 -4 25 -5 0 -6 6 -1 13 11 18
15 107 4 107 -5 0 -8 8 -7 18 0 10 -6 16 -16 16 -10 -1 -16 2 -13 6 3 5 -2 16
-11 25 -12 12 -19 13 -24 5 -4 -7 -9 3 -12 23 -2 20 0 33 4 31 13 -8 9 21 -6
41 -14 19 -10 59 5 50 4 -3 12 3 18 12 7 12 10 14 11 4 0 -8 9 -3 21 13 11 14
26 26 32 26 7 0 6 -5 -3 -11 -11 -8 -9 -9 10 -3 14 4 28 11 31 16 3 5 10 10
15 11 5 1 8 5 6 10 -1 4 1 6 5 6 21 -3 33 3 33 17 0 9 -5 12 -12 8 -7 -4 -8
-3 -4 5 4 6 12 8 18 5 7 -5 9 -1 5 9 -5 14 1 17 36 17 24 0 49 6 56 13 11 10
12 9 5 -3 -6 -12 -2 -11 19 3 17 11 53 19 94 22 37 2 69 8 72 12 3 4 13 9 21
11 29 6 80 47 75 60 -3 7 -1 11 3 8 12 -7 45 22 37 33 -3 6 -2 11 4 11 5 0 8
9 6 20 -2 12 0 18 6 14 7 -4 9 14 6 52 -3 33 -6 61 -7 64 -1 3 -2 8 -1 13 0 4
-3 7 -9 7 -5 0 -10 9 -10 20 0 11 -4 20 -10 20 -5 0 -10 8 -10 17 0 9 -3 13
-6 10 -4 -4 -14 2 -23 12 -18 20 -53 41 -79 46 -9 2 -30 6 -46 11 -19 4 -27 3
-23 -3 4 -6 -3 -8 -16 -6 -12 2 -31 -2 -42 -10 -18 -14 -20 -12 -37 24 -9 21
-23 37 -30 36 -7 -2 -10 -2 -5 0 13 8 8 23 -8 23 -8 0 -15 7 -15 15 0 8 -5 15
-11 15 -5 0 -7 -6 -3 -12 4 -7 -1 -6 -12 4 -22 19 -93 40 -107 31 -5 -3 -12
-1 -16 5 -21 35 -65 82 -76 82 -7 0 -16 7 -19 16 -4 9 -13 14 -21 10 -9 -3
-15 0 -15 8 0 9 -10 13 -29 12 -17 -1 -28 2 -25 6 3 4 -6 7 -20 6 -15 -1 -26
-7 -26 -13 0 -5 -4 -5 -8 2 -10 16 -54 5 -45 -11 4 -6 -1 -5 -10 3 -16 12 -22
8 -18 -12 1 -5 -2 -6 -7 -3 -12 7 -62 -16 -62 -29 0 -6 -9 -16 -21 -23 -11 -7
-19 -18 -16 -25 2 -7 -2 -16 -9 -22 -7 -5 -15 -23 -18 -40 -2 -16 -5 -32 -6
-35 -1 -3 -1 -9 0 -15 9 -42 7 -73 -5 -69 -7 3 -24 -8 -38 -25 -13 -16 -26
-29 -28 -27 -2 2 -22 -15 -44 -37 -22 -23 -34 -37 -26 -32 10 5 12 4 7 -3 -4
-7 -14 -12 -22 -12 -8 0 -14 -7 -14 -15 0 -8 -4 -15 -10 -15 -5 0 -10 -10 -10
-22 0 -12 -3 -18 -7 -15 -9 9 -35 -44 -29 -60 3 -7 0 -12 -6 -10 -7 1 -15 -9
-18 -23 -13 -54 -32 -89 -45 -84 -7 3 -11 14 -7 26 3 13 1 19 -5 15 -6 -4 -16
5 -22 21 -12 31 -41 80 -58 100 -7 7 -13 18 -13 23 0 5 -5 9 -11 9 -14 0 -39
25 -39 40 0 6 -6 13 -14 16 -8 3 -12 13 -9 24 6 22 -32 48 -40 27 -3 -7 -6 -5
-6 6 -1 19 -16 23 -27 5 -5 -7 -3 -8 6 -3 8 5 11 4 6 -3 -4 -6 -14 -8 -23 -5
-12 5 -15 2 -10 -10 3 -9 3 -16 -1 -14 -13 4 -49 -39 -56 -67 -5 -20 -4 -26 5
-20 8 4 9 3 5 -4 -4 -6 -13 -9 -20 -6 -14 5 -29 -25 -29 -58 0 -10 -4 -15 -8
-12 -5 3 -9 0 -9 -5 0 -6 -6 -10 -12 -9 -7 2 -12 -5 -12 -14 1 -10 -3 -18 -8
-18 -6 0 -8 -7 -5 -15 4 -8 2 -17 -3 -20 -6 -4 -10 -11 -10 -16 0 -6 5 -7 10
-4 6 3 10 1 10 -5 0 -7 -8 -9 -20 -5 -13 4 -20 2 -20 -7 0 -7 -14 -27 -30 -45
-17 -18 -30 -36 -30 -42 0 -5 -10 -17 -21 -25 -12 -8 -19 -21 -16 -29 3 -8 -3
-24 -13 -35 -24 -25 -40 -79 -20 -67 9 5 11 4 6 -4 -4 -6 -11 -9 -16 -6 -4 3
-11 -2 -14 -11 -9 -22 -8 -26 6 -18 7 4 8 3 4 -5 -4 -6 -11 -9 -16 -6 -5 3
-12 -5 -16 -19 -3 -14 -9 -24 -13 -23 -3 1 -7 -2 -8 -7 -1 -5 -7 -12 -13 -16
-7 -4 -9 -13 -6 -19 4 -6 12 -8 18 -5 7 4 8 2 4 -5 -4 -6 -11 -9 -16 -6 -5 3
-11 1 -14 -4 -8 -12 3 -41 16 -41 5 0 6 5 2 12 -4 7 -3 8 5 4 6 -4 8 -13 4
-19 -4 -7 -8 -18 -10 -26 -1 -8 -6 -17 -11 -20 -5 -3 -11 -19 -14 -34 -4 -22
-2 -27 9 -23 8 3 11 1 8 -4 -3 -6 -13 -10 -21 -10 -8 0 -14 -4 -14 -10 0 -5 5
-10 12 -10 7 0 6 -5 -4 -12 -23 -20 -28 -44 -12 -66 12 -17 12 -21 -1 -26 -17
-6 -13 -79 6 -102 6 -8 8 -14 5 -14 -4 0 -2 -9 4 -19 7 -14 6 -21 -3 -24 -8
-3 -6 -11 8 -28 15 -18 16 -21 2 -10 -15 12 -17 12 -11 -3 3 -9 10 -16 15 -16
5 0 3 -13 -6 -30 -9 -16 -12 -30 -8 -30 5 0 -1 -8 -12 -16 -14 -11 -16 -18 -7
-21 6 -3 12 -12 12 -21 0 -15 -2 -15 -10 -2 -8 13 -10 12 -10 -2 0 -10 4 -18
8 -18 4 0 8 -17 7 -37 0 -31 4 -38 23 -42 13 -4 23 -9 23 -13 -1 -5 -1 -11 -1
-15 0 -3 10 2 23 13 12 10 17 12 10 5 -9 -11 -8 -19 5 -39 9 -15 12 -23 5 -19
-16 10 -20 1 -27 -62 -5 -49 -4 -52 12 -40 15 13 16 12 3 -4 -15 -19 -28 -19
-881 -6 -19 1 -53 0 -75 -2 -22 -1 -71 1 -110 5 -132 14 -677 20 -774 10 l-53
-7 27 47 c15 25 23 46 18 46 -4 0 -2 4 5 8 12 8 52 110 52 135 0 8 9 22 20 32
29 26 110 201 150 326 28 84 40 109 61 121 32 19 115 178 158 304 34 100 37
127 18 164 -11 22 -9 33 19 90 52 110 134 306 134 323 0 9 5 19 10 22 21 13
157 316 176 389 4 17 20 34 43 46 64 33 107 103 160 256 34 100 37 127 18 164
-11 22 -9 33 19 90 52 110 134 306 134 323 0 9 5 19 10 22 21 13 157 316 176
389 4 17 20 34 43 46 l36 19 -101 1 -100 0 -47 -97 c-74 -157 -125 -303 -106
-303 5 0 9 7 9 15 0 8 6 12 15 9 8 -3 13 -11 12 -17 -3 -18 -41 -46 -48 -36
-11 19 -179 -366 -179 -411 0 -5 -6 -10 -12 -11 -33 -2 -51 -9 -64 -26 -22
-26 -86 -163 -124 -265 -30 -80 -32 -88 -17 -103 15 -15 15 -20 -12 -73 -92
-185 -163 -372 -140 -372 5 0 9 7 9 15 0 8 6 12 15 9 8 -3 13 -11 12 -17 -3
-18 -41 -46 -48 -36 -11 19 -179 -366 -179 -411 0 -5 -6 -10 -12 -11 -33 -2
-51 -9 -64 -26 -48 -60 -154 -323 -154 -380 0 -26 -8 -50 -21 -67 -24 -30
-105 -209 -137 -304 -23 -66 -29 -122 -12 -122 6 0 10 7 10 15 0 8 15 19 33
24 17 5 24 10 14 10 -22 1 -21 6 39 154 49 121 79 183 93 191 5 4 24 -2 43
-11 18 -10 34 -19 36 -19 2 -1 -16 -53 -39 -115 -48 -134 -112 -262 -117 -236
-6 30 -55 16 -67 -19 -14 -41 -60 -115 -68 -108 -3 3 3 26 14 51 35 81 12 58
-35 -35 l-46 -91 22 -16 c29 -20 55 -19 67 3 6 10 11 12 11 4 0 -7 4 -10 10
-7 19 12 10 -18 -13 -39 -55 -53 -127 -138 -127 -149 0 -18 -64 -156 -73 -157
-14 0 6 61 51 154 3 5 0 6 -7 2 -18 -12 -12 6 11 31 12 13 18 26 14 30 -20 20
-793 5 -833 -16 -10 -5 -32 -14 -49 -21 -32 -12 -70 -63 -59 -81 4 -6 -1 -16
-11 -23 -12 -9 -14 -15 -6 -20 15 -9 15 -73 1 -78 -9 -3 -9 -13 0 -40 9 -29 9
-44 -3 -79 -9 -24 -11 -49 -7 -58 5 -9 6 -22 3 -30 -2 -7 1 -16 7 -20 6 -4 12
-34 12 -67 1 -80 -1 -94 -12 -94 -6 0 -7 -5 -3 -11 4 -7 6 -49 5 -95 0 -45 3
-94 8 -107 7 -19 6 -28 -4 -37 -11 -9 -13 -37 -10 -128 6 -146 8 -165 29 -196
19 -30 21 -65 5 -100 -9 -19 -9 -32 1 -56 9 -22 9 -34 2 -43 -8 -10 -7 -21 4
-42 8 -16 11 -31 6 -34 -5 -3 -12 -16 -16 -28 -4 -13 -12 -23 -17 -23 -6 0 -9
-22 -6 -54 3 -31 0 -59 -6 -65 -7 -7 -7 -18 2 -35 8 -15 10 -36 6 -56 -8 -34
-16 -146 -17 -218 0 -24 7 -67 16 -96 12 -37 15 -71 11 -117 -3 -35 -6 -71 -5
-79 0 -8 0 -60 0 -115 1 -55 10 -176 21 -270 22 -190 22 -199 16 -237 -3 -16
0 -32 9 -39 7 -6 11 -16 8 -21 -4 -5 -8 -30 -9 -54 -3 -46 -6 -44 65 -61 l35
-8 -49 -5 c-54 -5 -66 -19 -41 -44 22 -21 248 -22 484 -2 253 22 500 30 516
16 10 -8 35 -8 92 -1 92 12 358 15 1028 13 270 -1 537 3 595 8 294 25 611 33
919 24 202 -7 360 -7 445 -1 87 7 359 6 814 -2 376 -6 687 -9 692 -6 6 3 484
6 1064 6 923 -1 1055 1 1066 14 7 8 21 15 32 15 10 0 21 6 24 14 18 46 20 299
3 332 -3 5 -6 22 -7 39 -1 16 -8 33 -16 37 -17 9 -9 57 10 65 18 7 18 17 -2
59 -11 22 -14 45 -10 66 10 49 7 81 -7 90 -9 6 -9 8 0 8 7 0 10 6 8 13 -4 12
-7 73 -19 352 -9 208 -18 309 -28 328 -6 11 -7 61 -3 123 5 65 3 104 -3 104
-5 0 -7 11 -4 25 2 14 0 25 -5 25 -9 0 -15 30 -14 65 1 11 2 30 2 43 1 12 7
22 14 22 8 0 15 17 18 43 6 49 -2 756 -14 1130 0 10 -8 23 -19 29 -10 6 -16
17 -13 25 7 17 -27 30 -36 14 -6 -9 -121 -13 -442 -15 -534 -5 -480 -2 -472
-23 6 -16 4 -16 -15 1 -12 11 -31 24 -41 30 -10 6 -55 39 -100 74 -75 58 -96
82 -71 82 6 0 10 8 10 18 1 12 5 9 16 -10 8 -16 22 -28 32 -28 19 1 52 23 52
35 0 4 -19 42 -42 83 -34 63 -41 84 -39 123 4 79 -110 351 -175 416 -20 20
-30 22 -70 16 -38 -5 -46 -3 -42 8 3 8 11 13 17 11 6 -1 11 2 11 8 0 11 -77
192 -123 289 -28 59 -33 79 -29 120 5 58 -4 90 -70 236 -57 126 -108 211 -117
196 -4 -6 -18 -1 -34 13 -23 20 -34 23 -57 16 -16 -5 -34 -11 -40 -15 -6 -4
-17 -2 -24 4 -20 16 -146 296 -153 337 -6 33 -5 34 24 28 27 -5 31 -3 37 21 6
23 9 25 23 13 20 -16 125 -232 152 -312 18 -55 41 -86 64 -86 33 0 -113 371
-167 425 -22 22 -31 24 -72 18 -38 -5 -46 -3 -42 8 3 8 11 13 17 12 6 -2 11 1
11 7 0 11 -77 192 -123 289 -28 59 -33 79 -29 120 5 58 -4 90 -70 236 -57 126
-108 211 -117 196 -4 -6 -18 -1 -34 13 -24 21 -33 23 -60 14 -18 -5 -39 -10
-47 -11 -16 -2 -85 127 -142 266 -27 65 -36 77 -55 77 -20 0 -23 -3 -17 -27z
m-2562 -21 c4 -7 -89 -240 -134 -334 -12 -26 -50 -36 -50 -13 0 17 54 152 103
258 42 89 65 114 81 89z m2904 -365 c6 -7 31 -53 55 -102 89 -181 119 -283 80
-268 -12 5 -14 3 -8 -7 6 -10 3 -12 -13 -8 -16 5 -22 2 -22 -10 -1 -25 -35 20
-71 90 -35 69 -109 254 -109 271 0 8 15 20 33 29 42 20 43 20 55 5z m-3303
-531 c9 -3 25 -1 35 4 10 6 21 10 24 10 22 0 -18 -132 -79 -262 l-26 -58 -79
0 -79 0 13 38 c36 102 112 266 134 289 24 27 25 27 33 7 4 -12 15 -24 24 -28z
m-161 -394 c4 -7 -89 -240 -134 -334 -12 -26 -50 -36 -50 -13 0 17 54 152 103
258 42 89 65 114 81 89z m4064 -405 c6 -7 31 -53 55 -102 89 -181 119 -283 80
-268 -12 5 -14 3 -8 -7 6 -10 3 -12 -13 -8 -16 5 -22 2 -22 -10 -1 -25 -35 20
-71 90 -35 69 -109 254 -109 271 0 8 15 20 33 29 42 20 43 20 55 5z m-2678
-197 c0 -5 -5 -10 -11 -10 -5 0 -7 5 -4 10 3 6 8 10 11 10 2 0 4 -4 4 -10z
m-1785 -294 c9 -3 25 -1 35 4 27 14 30 13 30 -14 0 -35 -44 -154 -105 -281
-37 -76 -49 -112 -41 -117 7 -5 6 -8 -4 -8 -9 0 -21 5 -28 12 -9 9 -12 7 -13
-13 0 -19 -4 -15 -15 18 -11 30 -22 43 -41 48 -23 5 -25 10 -20 40 9 53 117
302 145 332 24 27 25 27 33 7 4 -12 15 -24 24 -28z m4874 -385 c17 -24 67
-125 112 -226 16 -37 39 -107 39 -121 0 -8 -7 -11 -17 -8 -10 3 -7 -1 7 -9 14
-9 28 -13 32 -11 5 3 8 -2 8 -11 0 -10 -5 -13 -12 -9 -7 4 -6 -1 3 -12 8 -10
32 -52 52 -91 26 -51 33 -73 23 -73 -7 0 -19 15 -26 33 -7 17 -24 46 -37 64
-13 18 -26 45 -29 62 -7 33 -32 49 -46 29 -8 -10 -11 -10 -15 0 -9 23 -25 13
-19 -13 6 -23 5 -23 -22 -14 -22 8 -37 29 -76 111 -63 133 -96 221 -96 259 0
29 1 30 35 23 33 -6 35 -5 35 20 0 35 23 34 49 -3z m-3418 -398 c-12 -20 -14
-14 -5 12 4 9 9 14 11 11 3 -2 0 -13 -6 -23z m3853 -761 c44 -16 71 -15 86 3
11 14 14 13 26 -4 29 -41 21 -93 -19 -134 -25 -25 -76 -14 -124 28 -33 28 -37
37 -36 74 2 44 25 89 31 59 1 -8 18 -20 36 -26z m-5785 -96 c26 -42 26 -72 1
-113 -29 -48 -63 -67 -110 -60 -59 8 -67 20 -82 122 -3 17 4 20 42 23 25 2 49
7 55 13 5 5 17 9 26 9 10 0 21 9 24 20 9 28 20 25 44 -14z"/>
<path d="M5220 7216 c0 -2 20 -46 44 -97 25 -52 53 -121 64 -153 18 -54 42
-86 64 -86 21 0 -8 97 -74 248 -37 86 -42 92 -69 92 -16 0 -29 -2 -29 -4z"/>
</g>
</svg>
